<svg version="1.1" xmlns="http://www.w3.org/2000/svg" width="1100" height="760" style="background:#fff;font-family:Arial,sans-serif;">
<defs>
  <marker id="arr" markerWidth="10" markerHeight="8" refX="9" refY="3" orient="auto"><path d="M0,0 L0,6 L9,3 z" fill="#1a237e"/></marker>
  <marker id="arr_open" markerWidth="10" markerHeight="8" refX="9" refY="3" orient="auto"><path d="M0,0 L9,3 L0,6" fill="none" stroke="#1a237e" stroke-width="1.5"/></marker>
  <marker id="diamond" markerWidth="12" markerHeight="8" refX="0" refY="4" orient="auto"><path d="M0,4 L5,0 L10,4 L5,8 z" fill="none" stroke="#1a237e" stroke-width="1.5"/></marker>
  <marker id="diamond_f" markerWidth="12" markerHeight="8" refX="0" refY="4" orient="auto"><path d="M0,4 L5,0 L10,4 L5,8 z" fill="#1a237e"/></marker>
</defs>
<text x="550" y="26" text-anchor="middle" font-size="16" font-weight="bold" fill="#1a237e">Euroleague Shop — Diagrama de Clase Rafinată</text>
<text x="550" y="42" text-anchor="middle" font-size="11" fill="#555">[Domeniul Soluției: Presentation / Service / Repository layers]</text>
<rect x="10" y="60" width="200" height="680" rx="6" fill="#f3f4fb" stroke="#c5cae9" stroke-width="1" stroke-dasharray="6,3"/>
<text x="110" y="80" text-anchor="middle" font-size="11" fill="#5c6bc0" font-weight="bold">«Presentation»</text>
<rect x="220" y="60" width="200" height="680" rx="6" fill="#f9fbe7" stroke="#dce775" stroke-width="1" stroke-dasharray="6,3"/>
<text x="320" y="80" text-anchor="middle" font-size="11" fill="#827717" font-weight="bold">«Service»</text>
<rect x="430" y="60" width="650" height="680" rx="6" fill="#fce4ec" stroke="#f48fb1" stroke-width="1" stroke-dasharray="6,3"/>
<text x="755" y="80" text-anchor="middle" font-size="11" fill="#880e4f" font-weight="bold">«Repository / Domain»</text>
<rect x="560" y="90" width="160" height="168" rx="4" fill="#e8eaf6" stroke="#1a237e" stroke-width="1.5"/>
<rect x="560" y="90" width="160" height="36" rx="4" fill="#1a237e"/>
<text x="640" y="102" text-anchor="middle" font-size="9" fill="#fff" font-style="italic">«Entity»</text>
<text x="640" y="116" text-anchor="middle" font-size="12" font-weight="bold" fill="#fff">User</text>
<line x1="560" y1="126" x2="720" y2="126" stroke="#1a237e" stroke-width="1"/>
<text x="566" y="140" font-size="10" fill="#1a237e" font-family="Courier New,monospace">- id: Long</text>
<text x="566" y="156" font-size="10" fill="#1a237e" font-family="Courier New,monospace">- username: String</text>
<text x="566" y="172" font-size="10" fill="#1a237e" font-family="Courier New,monospace">- password: String</text>
<text x="566" y="188" font-size="10" fill="#1a237e" font-family="Courier New,monospace">- email: String</text>
<text x="566" y="204" font-size="10" fill="#1a237e" font-family="Courier New,monospace">- role: Role</text>
<line x1="560" y1="216" x2="720" y2="216" stroke="#1a237e" stroke-width="1"/>
<text x="566" y="230" font-size="10" fill="#283593" font-family="Courier New,monospace">+ getId(): Long</text>
<text x="566" y="246" font-size="10" fill="#283593" font-family="Courier New,monospace">+ getRole(): Role</text>
<rect x="750" y="90" width="170" height="216" rx="4" fill="#e8eaf6" stroke="#1a237e" stroke-width="1.5"/>
<rect x="750" y="90" width="170" height="36" rx="4" fill="#1a237e"/>
<text x="835" y="102" text-anchor="middle" font-size="9" fill="#fff" font-style="italic">«Entity»</text>
<text x="835" y="116" text-anchor="middle" font-size="12" font-weight="bold" fill="#fff">Product</text>
<line x1="750" y1="126" x2="920" y2="126" stroke="#1a237e" stroke-width="1"/>
<text x="756" y="140" font-size="10" fill="#1a237e" font-family="Courier New,monospace">- id: Long</text>
<text x="756" y="156" font-size="10" fill="#1a237e" font-family="Courier New,monospace">- name: String</text>
<text x="756" y="172" font-size="10" fill="#1a237e" font-family="Courier New,monospace">- description: String</text>
<text x="756" y="188" font-size="10" fill="#1a237e" font-family="Courier New,monospace">- price: Double</text>
<text x="756" y="204" font-size="10" fill="#1a237e" font-family="Courier New,monospace">- stock: Integer</text>
<text x="756" y="220" font-size="10" fill="#1a237e" font-family="Courier New,monospace">- category: String</text>
<text x="756" y="236" font-size="10" fill="#1a237e" font-family="Courier New,monospace">- team: String</text>
<text x="756" y="252" font-size="10" fill="#1a237e" font-family="Courier New,monospace">- imageUrl: String</text>
<line x1="750" y1="264" x2="920" y2="264" stroke="#1a237e" stroke-width="1"/>
<text x="756" y="278" font-size="10" fill="#283593" font-family="Courier New,monospace">+ getId(): Long</text>
<text x="756" y="294" font-size="10" fill="#283593" font-family="Courier New,monospace">+ isInStock(): boolean</text>
<rect x="560" y="380" width="150" height="136" rx="4" fill="#e8eaf6" stroke="#1a237e" stroke-width="1.5"/>
<rect x="560" y="380" width="150" height="36" rx="4" fill="#1a237e"/>
<text x="635" y="392" text-anchor="middle" font-size="9" fill="#fff" font-style="italic">«Entity»</text>
<text x="635" y="406" text-anchor="middle" font-size="12" font-weight="bold" fill="#fff">CartItem</text>
<line x1="560" y1="416" x2="710" y2="416" stroke="#1a237e" stroke-width="1"/>
<text x="566" y="430" font-size="10" fill="#1a237e" font-family="Courier New,monospace">- id: Long</text>
<text x="566" y="446" font-size="10" fill="#1a237e" font-family="Courier New,monospace">- user: User</text>
<text x="566" y="462" font-size="10" fill="#1a237e" font-family="Courier New,monospace">- product: Product</text>
<text x="566" y="478" font-size="10" fill="#1a237e" font-family="Courier New,monospace">- quantity: Integer</text>
<line x1="560" y1="490" x2="710" y2="490" stroke="#1a237e" stroke-width="1"/>
<text x="566" y="504" font-size="10" fill="#283593" font-family="Courier New,monospace">+ getTotal(): Double</text>
<rect x="750" y="380" width="150" height="120" rx="4" fill="#e8eaf6" stroke="#1a237e" stroke-width="1.5"/>
<rect x="750" y="380" width="150" height="36" rx="4" fill="#1a237e"/>
<text x="825" y="392" text-anchor="middle" font-size="9" fill="#fff" font-style="italic">«Entity»</text>
<text x="825" y="406" text-anchor="middle" font-size="12" font-weight="bold" fill="#fff">Favorite</text>
<line x1="750" y1="416" x2="900" y2="416" stroke="#1a237e" stroke-width="1"/>
<text x="756" y="430" font-size="10" fill="#1a237e" font-family="Courier New,monospace">- id: Long</text>
<text x="756" y="446" font-size="10" fill="#1a237e" font-family="Courier New,monospace">- user: User</text>
<text x="756" y="462" font-size="10" fill="#1a237e" font-family="Courier New,monospace">- product: Product</text>
<line x1="750" y1="474" x2="900" y2="474" stroke="#1a237e" stroke-width="1"/>
<rect x="940" y="90" width="130" height="104" rx="4" fill="#fff8e1" stroke="#f9a825" stroke-width="1.5"/>
<rect x="940" y="90" width="130" height="36" rx="4" fill="#f9a825"/>
<text x="1005" y="102" text-anchor="middle" font-size="9" fill="#fff" font-style="italic">«enumeration»</text>
<text x="1005" y="116" text-anchor="middle" font-size="12" font-weight="bold" fill="#fff">Role</text>
<line x1="940" y1="126" x2="1070" y2="126" stroke="#f9a825" stroke-width="1"/>
<text x="946" y="140" font-size="10" fill="#1a237e" font-family="Courier New,monospace">USER</text>
<text x="946" y="156" font-size="10" fill="#1a237e" font-family="Courier New,monospace">ADMIN</text>
<line x1="940" y1="168" x2="1070" y2="168" stroke="#f9a825" stroke-width="1"/>
<rect x="440" y="90" width="110" height="104" rx="4" fill="#e8eaf6" stroke="#1a237e" stroke-width="1.5"/>
<rect x="440" y="90" width="110" height="36" rx="4" fill="#1a237e"/>
<text x="495" y="102" text-anchor="middle" font-size="9" fill="#fff" font-style="italic">«Repository»</text>
<text x="495" y="116" text-anchor="middle" font-size="12" font-weight="bold" fill="#fff">UserRepo</text>
<line x1="440" y1="126" x2="550" y2="126" stroke="#1a237e" stroke-width="1"/>
<line x1="440" y1="152" x2="550" y2="152" stroke="#1a237e" stroke-width="1"/>
<text x="446" y="166" font-size="10" fill="#283593" font-family="Courier New,monospace">+ findByUsername()</text>
<text x="446" y="182" font-size="10" fill="#283593" font-family="Courier New,monospace">+ findById()</text>
<rect x="440" y="240" width="110" height="120" rx="4" fill="#e8eaf6" stroke="#1a237e" stroke-width="1.5"/>
<rect x="440" y="240" width="110" height="36" rx="4" fill="#1a237e"/>
<text x="495" y="252" text-anchor="middle" font-size="9" fill="#fff" font-style="italic">«Repository»</text>
<text x="495" y="266" text-anchor="middle" font-size="12" font-weight="bold" fill="#fff">ProductRepo</text>
<line x1="440" y1="276" x2="550" y2="276" stroke="#1a237e" stroke-width="1"/>
<line x1="440" y1="302" x2="550" y2="302" stroke="#1a237e" stroke-width="1"/>
<text x="446" y="316" font-size="10" fill="#283593" font-family="Courier New,monospace">+ findAll()</text>
<text x="446" y="332" font-size="10" fill="#283593" font-family="Courier New,monospace">+ findByFilters()</text>
<text x="446" y="348" font-size="10" fill="#283593" font-family="Courier New,monospace">+ findByName..()</text>
<rect x="440" y="380" width="110" height="104" rx="4" fill="#e8eaf6" stroke="#1a237e" stroke-width="1.5"/>
<rect x="440" y="380" width="110" height="36" rx="4" fill="#1a237e"/>
<text x="495" y="392" text-anchor="middle" font-size="9" fill="#fff" font-style="italic">«Repository»</text>
<text x="495" y="406" text-anchor="middle" font-size="12" font-weight="bold" fill="#fff">CartRepo</text>
<line x1="440" y1="416" x2="550" y2="416" stroke="#1a237e" stroke-width="1"/>
<line x1="440" y1="442" x2="550" y2="442" stroke="#1a237e" stroke-width="1"/>
<text x="446" y="456" font-size="10" fill="#283593" font-family="Courier New,monospace">+ findByUserId()</text>
<text x="446" y="472" font-size="10" fill="#283593" font-family="Courier New,monospace">+ save()</text>
<rect x="440" y="480" width="110" height="120" rx="4" fill="#e8eaf6" stroke="#1a237e" stroke-width="1.5"/>
<rect x="440" y="480" width="110" height="36" rx="4" fill="#1a237e"/>
<text x="495" y="492" text-anchor="middle" font-size="9" fill="#fff" font-style="italic">«Repository»</text>
<text x="495" y="506" text-anchor="middle" font-size="12" font-weight="bold" fill="#fff">FavoriteRepo</text>
<line x1="440" y1="516" x2="550" y2="516" stroke="#1a237e" stroke-width="1"/>
<line x1="440" y1="542" x2="550" y2="542" stroke="#1a237e" stroke-width="1"/>
<text x="446" y="556" font-size="10" fill="#283593" font-family="Courier New,monospace">+ findByUserAnd...()</text>
<text x="446" y="572" font-size="10" fill="#283593" font-family="Courier New,monospace">+ save()</text>
<text x="446" y="588" font-size="10" fill="#283593" font-family="Courier New,monospace">+ delete()</text>
<rect x="440" y="600" width="110" height="120" rx="4" fill="#e8eaf6" stroke="#1a237e" stroke-width="1.5"/>
<rect x="440" y="600" width="110" height="36" rx="4" fill="#1a237e"/>
<text x="495" y="612" text-anchor="middle" font-size="9" fill="#fff" font-style="italic">«Service»</text>
<text x="495" y="626" text-anchor="middle" font-size="12" font-weight="bold" fill="#fff">ImportService</text>
<line x1="440" y1="636" x2="550" y2="636" stroke="#1a237e" stroke-width="1"/>
<line x1="440" y1="662" x2="550" y2="662" stroke="#1a237e" stroke-width="1"/>
<text x="446" y="676" font-size="10" fill="#283593" font-family="Courier New,monospace">+ importFromCsv()</text>
<text x="446" y="692" font-size="10" fill="#283593" font-family="Courier New,monospace">+ parseCsv()</text>
<text x="446" y="708" font-size="10" fill="#283593" font-family="Courier New,monospace">+ validateRows()</text>
<rect x="225" y="90" width="180" height="120" rx="4" fill="#e8eaf6" stroke="#1a237e" stroke-width="1.5"/>
<rect x="225" y="90" width="180" height="36" rx="4" fill="#1a237e"/>
<text x="315" y="102" text-anchor="middle" font-size="9" fill="#fff" font-style="italic">«Service»</text>
<text x="315" y="116" text-anchor="middle" font-size="12" font-weight="bold" fill="#fff">UserService</text>
<line x1="225" y1="126" x2="405" y2="126" stroke="#1a237e" stroke-width="1"/>
<line x1="225" y1="152" x2="405" y2="152" stroke="#1a237e" stroke-width="1"/>
<text x="231" y="166" font-size="10" fill="#283593" font-family="Courier New,monospace">+ authenticate()</text>
<text x="231" y="182" font-size="10" fill="#283593" font-family="Courier New,monospace">+ getUserById()</text>
<text x="231" y="198" font-size="10" fill="#283593" font-family="Courier New,monospace">+ createUser()</text>
<rect x="225" y="240" width="180" height="168" rx="4" fill="#e8eaf6" stroke="#1a237e" stroke-width="1.5"/>
<rect x="225" y="240" width="180" height="36" rx="4" fill="#1a237e"/>
<text x="315" y="252" text-anchor="middle" font-size="9" fill="#fff" font-style="italic">«Service»</text>
<text x="315" y="266" text-anchor="middle" font-size="12" font-weight="bold" fill="#fff">ProductService</text>
<line x1="225" y1="276" x2="405" y2="276" stroke="#1a237e" stroke-width="1"/>
<line x1="225" y1="302" x2="405" y2="302" stroke="#1a237e" stroke-width="1"/>
<text x="231" y="316" font-size="10" fill="#283593" font-family="Courier New,monospace">+ getAllProducts()</text>
<text x="231" y="332" font-size="10" fill="#283593" font-family="Courier New,monospace">+ getById()</text>
<text x="231" y="348" font-size="10" fill="#283593" font-family="Courier New,monospace">+ searchProducts()</text>
<text x="231" y="364" font-size="10" fill="#283593" font-family="Courier New,monospace">+ filterProducts()</text>
<text x="231" y="380" font-size="10" fill="#283593" font-family="Courier New,monospace">+ addProduct()</text>
<text x="231" y="396" font-size="10" fill="#283593" font-family="Courier New,monospace">+ updateStock()</text>
<rect x="225" y="450" width="180" height="120" rx="4" fill="#e8eaf6" stroke="#1a237e" stroke-width="1.5"/>
<rect x="225" y="450" width="180" height="36" rx="4" fill="#1a237e"/>
<text x="315" y="462" text-anchor="middle" font-size="9" fill="#fff" font-style="italic">«Service»</text>
<text x="315" y="476" text-anchor="middle" font-size="12" font-weight="bold" fill="#fff">CartService</text>
<line x1="225" y1="486" x2="405" y2="486" stroke="#1a237e" stroke-width="1"/>
<line x1="225" y1="512" x2="405" y2="512" stroke="#1a237e" stroke-width="1"/>
<text x="231" y="526" font-size="10" fill="#283593" font-family="Courier New,monospace">+ addToCart()</text>
<text x="231" y="542" font-size="10" fill="#283593" font-family="Courier New,monospace">+ removeFromCart()</text>
<text x="231" y="558" font-size="10" fill="#283593" font-family="Courier New,monospace">+ getCartByUser()</text>
<rect x="225" y="580" width="180" height="104" rx="4" fill="#e8eaf6" stroke="#1a237e" stroke-width="1.5"/>
<rect x="225" y="580" width="180" height="36" rx="4" fill="#1a237e"/>
<text x="315" y="592" text-anchor="middle" font-size="9" fill="#fff" font-style="italic">«Service»</text>
<text x="315" y="606" text-anchor="middle" font-size="12" font-weight="bold" fill="#fff">FavoriteService</text>
<line x1="225" y1="616" x2="405" y2="616" stroke="#1a237e" stroke-width="1"/>
<line x1="225" y1="642" x2="405" y2="642" stroke="#1a237e" stroke-width="1"/>
<text x="231" y="656" font-size="10" fill="#283593" font-family="Courier New,monospace">+ toggleFavorite()</text>
<text x="231" y="672" font-size="10" fill="#283593" font-family="Courier New,monospace">+ getFavoritesByUser()</text>
<rect x="15" y="90" width="190" height="104" rx="4" fill="#e8eaf6" stroke="#1a237e" stroke-width="1.5"/>
<rect x="15" y="90" width="190" height="36" rx="4" fill="#1a237e"/>
<text x="110" y="102" text-anchor="middle" font-size="9" fill="#fff" font-style="italic">«Controller»</text>
<text x="110" y="116" text-anchor="middle" font-size="12" font-weight="bold" fill="#fff">AuthController</text>
<line x1="15" y1="126" x2="205" y2="126" stroke="#1a237e" stroke-width="1"/>
<line x1="15" y1="152" x2="205" y2="152" stroke="#1a237e" stroke-width="1"/>
<text x="21" y="166" font-size="10" fill="#283593" font-family="Courier New,monospace">+ login()</text>
<text x="21" y="182" font-size="10" fill="#283593" font-family="Courier New,monospace">+ register()</text>
<rect x="15" y="220" width="190" height="136" rx="4" fill="#e8eaf6" stroke="#1a237e" stroke-width="1.5"/>
<rect x="15" y="220" width="190" height="36" rx="4" fill="#1a237e"/>
<text x="110" y="232" text-anchor="middle" font-size="9" fill="#fff" font-style="italic">«Controller»</text>
<text x="110" y="246" text-anchor="middle" font-size="12" font-weight="bold" fill="#fff">ProductController</text>
<line x1="15" y1="256" x2="205" y2="256" stroke="#1a237e" stroke-width="1"/>
<line x1="15" y1="282" x2="205" y2="282" stroke="#1a237e" stroke-width="1"/>
<text x="21" y="296" font-size="10" fill="#283593" font-family="Courier New,monospace">+ getAllProducts()</text>
<text x="21" y="312" font-size="10" fill="#283593" font-family="Courier New,monospace">+ getById()</text>
<text x="21" y="328" font-size="10" fill="#283593" font-family="Courier New,monospace">+ search()</text>
<text x="21" y="344" font-size="10" fill="#283593" font-family="Courier New,monospace">+ filter()</text>
<rect x="15" y="380" width="190" height="120" rx="4" fill="#e8eaf6" stroke="#1a237e" stroke-width="1.5"/>
<rect x="15" y="380" width="190" height="36" rx="4" fill="#1a237e"/>
<text x="110" y="392" text-anchor="middle" font-size="9" fill="#fff" font-style="italic">«Controller»</text>
<text x="110" y="406" text-anchor="middle" font-size="12" font-weight="bold" fill="#fff">AdminController</text>
<line x1="15" y1="416" x2="205" y2="416" stroke="#1a237e" stroke-width="1"/>
<line x1="15" y1="442" x2="205" y2="442" stroke="#1a237e" stroke-width="1"/>
<text x="21" y="456" font-size="10" fill="#283593" font-family="Courier New,monospace">+ addProduct()</text>
<text x="21" y="472" font-size="10" fill="#283593" font-family="Courier New,monospace">+ updateStock()</text>
<text x="21" y="488" font-size="10" fill="#283593" font-family="Courier New,monospace">+ importCsv()</text>
<rect x="15" y="520" width="190" height="120" rx="4" fill="#e8eaf6" stroke="#1a237e" stroke-width="1.5"/>
<rect x="15" y="520" width="190" height="36" rx="4" fill="#1a237e"/>
<text x="110" y="532" text-anchor="middle" font-size="9" fill="#fff" font-style="italic">«Controller»</text>
<text x="110" y="546" text-anchor="middle" font-size="12" font-weight="bold" fill="#fff">CartController</text>
<line x1="15" y1="556" x2="205" y2="556" stroke="#1a237e" stroke-width="1"/>
<line x1="15" y1="582" x2="205" y2="582" stroke="#1a237e" stroke-width="1"/>
<text x="21" y="596" font-size="10" fill="#283593" font-family="Courier New,monospace">+ addToCart()</text>
<text x="21" y="612" font-size="10" fill="#283593" font-family="Courier New,monospace">+ removeFromCart()</text>
<text x="21" y="628" font-size="10" fill="#283593" font-family="Courier New,monospace">+ getCart()</text>
<rect x="15" y="630" width="190" height="104" rx="4" fill="#e8eaf6" stroke="#1a237e" stroke-width="1.5"/>
<rect x="15" y="630" width="190" height="36" rx="4" fill="#1a237e"/>
<text x="110" y="642" text-anchor="middle" font-size="9" fill="#fff" font-style="italic">«Controller»</text>
<text x="110" y="656" text-anchor="middle" font-size="12" font-weight="bold" fill="#fff">FavoriteController</text>
<line x1="15" y1="666" x2="205" y2="666" stroke="#1a237e" stroke-width="1"/>
<line x1="15" y1="692" x2="205" y2="692" stroke="#1a237e" stroke-width="1"/>
<text x="21" y="706" font-size="10" fill="#283593" font-family="Courier New,monospace">+ toggleFavorite()</text>
<text x="21" y="722" font-size="10" fill="#283593" font-family="Courier New,monospace">+ getFavorites()</text>
<line x1="205" y1="130" x2="225" y2="130" stroke="#1a237e" stroke-width="1.5" stroke-dasharray="6,3" marker-end="url(#arr)"/>
<line x1="205" y1="280" x2="225" y2="280" stroke="#1a237e" stroke-width="1.5" stroke-dasharray="6,3" marker-end="url(#arr)"/>
<line x1="205" y1="430" x2="225" y2="480" stroke="#1a237e" stroke-width="1.5" stroke-dasharray="6,3" marker-end="url(#arr)"/>
<line x1="205" y1="560" x2="225" y2="600" stroke="#1a237e" stroke-width="1.5" stroke-dasharray="6,3" marker-end="url(#arr)"/>
<line x1="405" y1="130" x2="440" y2="130" stroke="#1a237e" stroke-width="1.5" stroke-dasharray="6,3" marker-end="url(#arr)"/>
<line x1="405" y1="280" x2="440" y2="280" stroke="#1a237e" stroke-width="1.5" stroke-dasharray="6,3" marker-end="url(#arr)"/>
<line x1="405" y1="500" x2="440" y2="420" stroke="#1a237e" stroke-width="1.5" stroke-dasharray="6,3" marker-end="url(#arr)"/>
<line x1="405" y1="620" x2="440" y2="520" stroke="#1a237e" stroke-width="1.5" stroke-dasharray="6,3" marker-end="url(#arr)"/>
<line x1="635" y1="380" x2="635" y2="258" stroke="#1a237e" stroke-width="1.5" marker-end="url(#arr)"/>
<text x="640" y="340" font-size="10" fill="#1a237e">*→1</text>
<line x1="710" y1="420" x2="750" y2="420" stroke="#1a237e" stroke-width="1.5" marker-end="url(#arr)"/>
<text x="715" y="415" font-size="10" fill="#1a237e">*→1</text>
<line x1="825" y1="380" x2="660" y2="258" stroke="#1a237e" stroke-width="1.5" marker-end="url(#arr)"/>
<line x1="900" y1="420" x2="920" y2="420" stroke="#1a237e" stroke-width="1" stroke-dasharray="none"/>
<line x1="720" y1="150" x2="940" y2="130" stroke="#1a237e" stroke-width="1.5" stroke-dasharray="none" marker-end="url(#arr)"/>
<text x="830" y="136" text-anchor="middle" font-size="10" fill="#1a237e">role</text>
</svg>